<?xml version="1.0" encoding="UTF-8"?>
<svg xmlns="http://www.w3.org/2000/svg" version="1.1" viewBox="0 0 32 32">
  <defs>
    <style>
      .cls-1 {
        fill: #b7b7b7;
      }
    </style>
  </defs>
  <!-- Generator: Adobe Illustrator 28.7.1, SVG Export Plug-In . SVG Version: 1.2.0 Build 142)  -->
  <g>
    <g id="Layer_1">
      <path class="cls-1" d="M26,27h-6c-.6,0-1-.4-1-1s.4-1,1-1h3.6l-6.3-6.3c-.4-.4-.4-1,0-1.4.4-.4,1-.4,1.4,0l6.3,6.3v-3.6c0-.6.4-1,1-1s1,.4,1,1v6c0,.6-.4,1-1,1ZM14.7,13.3l-6.3-6.3h3.6c.6,0,1-.4,1-1s-.4-1-1-1h-6c-.6,0-1,.4-1,1v6c0,.6.4,1,1,1s1-.4,1-1v-3.6l6.3,6.3c.4.4,1,.4,1.4,0,.4-.4.4-1,0-1.4Z"/>
    </g>
  </g>
</svg>