<?xml version="1.0" encoding="UTF-8"?>
<svg xmlns="http://www.w3.org/2000/svg" version="1.1" viewBox="0 0 32 32">
  <defs>
    <style>
      .cls-1 {
        fill: #b7b7b7;
      }
    </style>
  </defs>
  <!-- Generator: Adobe Illustrator 28.7.1, SVG Export Plug-In . SVG Version: 1.2.0 Build 142)  -->
  <g>
    <g id="Layer_1">
      <path class="cls-1" d="M30,7v6c0,.6-.4,1-1,1h-6c-.6,0-1-.4-1-1s.4-1,1-1h3.4l-3.3-3h0c-3.9-3.9-10.2-3.9-14.1,0-3.9,3.9-3.9,10.2,0,14.1,3.8,3.8,10,3.9,13.9.2.4-.4,1-.4,1.4,0s.4,1,0,1.4c-2.2,2.1-5.2,3.3-8.2,3.3h-.2c-6.6,0-11.9-5.5-11.8-12.2,0-6.6,5.5-11.9,12.2-11.8,3.1,0,6.1,1.3,8.3,3.5l3.5,3.2v-3.7c0-.6.4-1,1-1s1,.4,1,1Z"/>
    </g>
  </g>
</svg>